mtllib materials.mtl
v 0.0004180558 0.03253776 0.042308
v 0.0215719 0.03253776 0.03663984
v 0.02157181 0.001768529 0.03663952
v 0.0004179664 0.001768529 0.04230767
v 0.03705783 0.03253776 0.02115393
v 0.0370575 0.001768589 0.02115384
v 0.04272599 0.03253782 -8.195639E-08
v 0.04272565 0.001768589 0
v 0.03705774 0.03253782 -0.02115408
v 0.0370575 0.001768589 -0.02115385
v 0.02157191 0.03253782 -0.03663987
v 0.02157182 0.001768589 -0.03663954
v 0.0004178882 0.03253782 -0.042308
v 0.0004179776 0.001768589 -0.04230769
v -0.02073611 0.03253782 -0.03663978
v -0.02073587 0.001768589 -0.03663954
v -0.03622188 0.03253782 -0.02115393
v -0.03622155 0.001768589 -0.02115385
v -0.04189004 0.03253776 7.450581E-08
v -0.04188971 0.001768589 -1.490116E-08
v -0.0362218 0.03253776 0.02115407
v -0.03622156 0.001768589 0.02115382
v -0.02073595 0.03253776 0.03663985
v -0.02073586 0.001768529 0.03663953
v -0.03255785 0.03253782 0.01903868
v -0.01862056 0.03253782 0.03297588
v 0.01415821 -0.1174621 0.02379921
v 0.0004179701 -0.1174621 0.0274809
v 0.02421677 -0.1174621 0.01374066
v 0.02789846 -0.1174621 4.246831E-07
v 0.02421677 -0.1174621 -0.01373982
v 0.01415822 -0.1174621 -0.02379838
v 0.0004179776 -0.1174621 -0.02748007
v -0.01332227 -0.1174621 -0.02379838
v -0.02338082 -0.1174621 -0.01373982
v -0.02706251 -0.1174621 4.097819E-07
v -0.02338083 -0.1174621 0.01374065
v -0.01332226 -0.1174621 0.02379922
v -0.03765927 0.03253782 6.705523E-08
v -0.03255793 0.03253782 -0.01903854
v -0.01862072 0.03253782 -0.03297582
v 0.0004178919 0.03253788 -0.03807724
v 0.01945653 0.03253788 -0.03297591
v 0.0333938 0.03253782 -0.01903869
v 0.03849521 0.03253782 -8.195639E-08
v 0.03339387 0.03253782 0.01903854
v 0.01945651 0.03253782 0.03297588
v 0.0004180558 0.03253782 0.03807722
v -0.0325576 0.001768589 0.01903842
v -0.01862047 0.001768589 0.03297555
v -0.03765894 0.001768589 -2.980232E-08
v -0.0325576 0.001768589 -0.01903847
v -0.01862048 0.001768589 -0.03297558
v 0.0004179776 0.001768589 -0.03807692
v 0.01945644 0.001768589 -0.03297558
v 0.03339356 0.001768589 -0.01903847
v 0.03849488 0.001768589 -7.450581E-09
v 0.03339355 0.001768589 0.01903843
v 0.01945642 0.001768589 0.03297555
v 0.0004179701 0.001768589 0.03807689
v -0.02338083 -0.1097698 0.01373935
v -0.01332226 -0.1097698 0.02379793
v -0.02706251 -0.1097698 -8.940697E-07
v -0.02338082 -0.1097698 -0.01374112
v -0.01332227 -0.1097698 -0.02379967
v 0.0004179776 -0.1097698 -0.02748136
v 0.01415823 -0.1097698 -0.02379969
v 0.02421678 -0.1097698 -0.01374112
v 0.02789846 -0.1097698 -8.791685E-07
v 0.02421678 -0.1097698 0.01373935
v 0.01415822 -0.1097698 0.02379792
v 0.0004179701 -0.1097698 0.02747959
v 0.03363137 0.039895 2.413243E-05
v 0.03338709 0.03157496 -0.01991567
v 0.03874608 0.03157496 8.432567E-05
v 0.03055064 0.04147279 -0.01563764
v 0.02041797 0.03330708 -0.03464103
v 0.01929496 0.0418517 -0.02811816
v 0.0004179738 0.03330708 -0.04000001
v 0.002991982 0.04149061 -0.03316343
v -0.01958203 0.03330708 -0.03464103
v -0.03131929 0.04224062 -0.01763453
v -0.03422305 0.03330702 -0.02000001
v -0.03361631 0.04077929 0.0007243156
v -0.03958203 0.03330702 0
v -0.03422304 0.03330702 0.02000001
v -0.02546311 0.03864974 0.01971039
v -0.01958203 0.03330702 0.03464102
v -0.01945436 0.04179347 0.03071996
v 0.0004179701 0.03330702 0.04000001
v -0.001925815 0.04151922 0.03631559
v 0.02041797 0.03330702 0.03464103
v 0.01908058 0.0406239 0.03148846
v 0.03505901 0.03330702 0.02
v 0.0298779 0.04110879 0.01791112
v 0.01128291 0.05239606 0.02083342
v 0.02307436 0.05039728 0.01439668
v 4.555285E-05 0.05136514 0.021513
v -0.01044987 0.05334926 0.01892583
v -0.01820916 0.050089 0.01263257
v -0.021106 0.05066681 0.0007549152
v -0.009346154 0.05216467 -0.01977792
v -0.01913171 0.05139446 -0.01332426
v 0.001394846 0.05178297 -0.0207648
v 0.01338081 0.05144083 -0.01627284
v 0.02264078 0.05186749 -0.009381771
v 0.02555323 0.05111194 0.0005978346
v -0.01778553 0.04269171 -0.02936214
vn 0.2588189 -1.624124E-06 0.9659259
vn 0.7071064 -8.88447E-07 0.7071073
vn 0.9659258 -4.488184E-07 0.2588193
vn 0.9659253 -9.526066E-06 -0.2588209
vn 0.7071067 4.234303E-08 -0.7071068
vn 0.2588191 1.906574E-07 -0.9659258
vn -0.2588192 6.380068E-08 -0.9659258
vn -0.7071084 -9.28781E-06 -0.7071052
vn -0.9659263 -9.663851E-06 -0.2588173
vn -0.9659259 -6.289935E-07 0.2588191
vn -0.7071065 -5.3377E-07 0.7071071
vn -0.258819 -1.686543E-07 0.9659258
vn -8.925041E-06 1 8.96955E-06
vn 0.2569718 -0.1192592 0.9590322
vn 0.70206 -0.1192601 0.7020603
vn 0.9590318 -0.1192617 0.2569719
vn 0.9590318 -0.1192634 -0.2569715
vn 0.7020598 -0.119265 -0.7020597
vn 0.2569718 -0.119266 -0.9590314
vn -0.2569716 -0.1192659 -0.9590314
vn -0.7020598 -0.1192651 -0.7020597
vn -0.9590316 -0.1192634 -0.256972
vn -0.9590319 -0.1192617 0.2569717
vn -0.7020604 -0.1192601 0.70206
vn -0.2569717 -0.1192592 0.9590322
vn 3.057097E-14 -1 -1.748456E-07
vn -1.219184E-05 1 3.359249E-06
vn -1.219186E-05 1 -2.887642E-06
vn -8.925062E-06 1 -8.996269E-06
vn -3.266797E-06 1 -1.19943E-05
vn 3.266799E-06 1 -1.23867E-05
vn 8.925068E-06 1 -8.530768E-06
vn 1.219186E-05 1 -3.017666E-06
vn 1.219185E-05 1 3.229228E-06
vn 8.925037E-06 1 8.940839E-06
vn 3.266785E-06 1 1.213329E-05
vn -3.266788E-06 1 1.206255E-05
vn 0.7071049 1.144597E-05 -0.7071087
vn 0.9659253 1.107805E-05 -0.258821
vn 0.9659263 1.103603E-05 0.258817
vn 0.7071087 1.101753E-05 0.7071049
vn 0.2588201 1.064673E-05 0.9659256
vn -0.258816 1.082773E-05 0.9659266
vn -0.7071057 1.059547E-05 0.707108
vn -0.9659253 1.110465E-05 0.258821
vn -0.9659263 1.122034E-05 -0.2588171
vn -0.7071064 1.100986E-06 -0.7071071
vn -0.258819 1.097962E-05 -0.9659258
vn 0.2588167 1.098527E-05 -0.9659265
vn 0.7041482 0.09138677 -0.7041476
vn 0.9618842 0.09138341 -0.2577359
vn 0.9618844 0.09137944 0.2577365
vn 0.7041486 0.09137601 0.7041485
vn 0.2577357 0.09137402 0.9618852
vn -0.2577356 0.09137402 0.9618852
vn -0.7041489 0.09137601 0.7041482
vn -0.9618846 0.09137944 0.2577359
vn -0.9618841 0.0913834 -0.2577362
vn -0.7041479 0.09138679 -0.7041479
vn -0.2577356 0.09138878 -0.9618837
vn 0.2577354 0.09138879 -0.9618839
vn -3.057097E-14 1 1.748456E-07
vn 0.8312204 0.5093783 -0.2227251
vn 0.6979386 0.4431654 -0.5625712
vn 0.2049325 0.6107835 -0.7648179
vn -0.1934959 0.6641365 -0.7221372
vn -0.6526211 0.3849306 -0.6526212
vn -0.7556354 0.6229129 -0.2024717
vn -0.7741911 0.5979927 0.2074442
vn -0.4531898 0.7676185 0.4531898
vn -0.2360059 0.4105078 0.8807865
vn 0.2308233 0.4523655 0.8614443
vn 0.6486729 0.3980541 0.6486731
vn 0.8159817 0.5690845 0.101573
vn 0.4119583 0.7461991 0.5229505
vn 2.842171E-14 -1 -1.748456E-07
vn -0.0433391 0.8345031 0.5492961
vn -0.03206574 0.7260484 0.6868956
vn -0.7499169 0.6193547 0.232432
vn -0.5849423 0.7390716 0.3340894
vn -0.6199742 0.7844765 -0.01512698
vn -0.395226 0.7653788 -0.507929
vn -0.0316184 0.7670454 -0.6408134
vn 0.2262752 0.8092508 -0.5421371
vn 0.4171934 0.6802022 -0.6027228
vn 0.8050278 0.5848447 -0.09943387
vn 0.778282 0.6160452 0.1215134
vn 0.2133532 0.9729387 0.08871737
vn -0.1270535 0.5046532 -0.8539219
vn -0.5835469 0.4801175 -0.6549506
vn -0.4053076 0.8030547 -0.4368396
vn -0.07870067 0.742797 -0.6648751
vn -0.5906904 0.8058466 -0.04118282
vn -0.9396864 0.3296177 -0.09133423
vn -0.09847262 0.9863415 -0.1320357
vn 0.1440854 0.9758961 0.1639091
vn -0.1155483 0.9329823 -0.3408706
vn -0.009355958 0.9986619 0.05086334
vn -0.009358081 0.9986902 0.05030303
vn -0.02087466 0.9959711 0.08721198
vn 0.03478476 0.9993633 -0.007945784
vn 0.02909704 0.9995754 -0.001506903
vn -0.1289053 0.9852874 0.1122151
vn 0.2289211 0.5806829 -0.7812828
vn 0.1735175 0.7686332 -0.6157068
vn 0.6438659 0.5159436 -0.5650123
vn 0.4710071 0.7857547 -0.4009264
vn 0.7346987 0.658125 -0.1645889
vn 0.9314261 0.3316699 -0.1498024
vn 0.8033107 0.5696328 0.1738119
vn -0.1882714 -0.9808206 0.05044716
vn -0.1882706 -0.9808207 0.05044681
vn 0.842855 0.5191669 0.1416376
vn 0.6365693 0.5636714 0.5263594
vn 0.5986189 0.6270643 0.4984434
vn 0.2202336 0.419655 0.8805606
vn 0.1837003 0.7237354 0.6651777
vn -0.2830798 0.3241821 0.9026472
vn -0.1569395 0.831826 0.5323865
vn -0.5706572 0.7606084 0.3095568
vn -0.8823124 0.208285 0.4220693
vn -0.7591127 0.6144188 0.2150292
vn -0.4891213 0.818327 0.3018303
usemtl mat25
f 4//1 3//1 2//1 1//1
f 3//2 6//2 5//2 2//2
f 6//3 8//3 7//3 5//3
f 8//4 10//4 9//4 7//4
f 10//5 12//5 11//5 9//5
f 12//6 14//6 13//6 11//6
f 14//7 16//7 15//7 13//7
f 16//8 18//8 17//8 15//8
f 18//9 20//9 19//9 17//9
f 20//10 22//10 21//10 19//10
f 22//11 24//11 23//11 21//11
f 24//12 4//12 1//12 23//12
f 26//13 25//13 21//13 23//13
f 28//14 27//14 3//14 4//14
f 27//15 29//15 6//15 3//15
f 29//16 30//16 8//16 6//16
f 30//17 31//17 10//17 8//17
f 31//18 32//18 12//18 10//18
f 32//19 33//19 14//19 12//19
f 33//20 34//20 16//20 14//20
f 34//21 35//21 18//21 16//21
f 35//22 36//22 20//22 18//22
f 36//23 37//23 22//23 20//23
f 37//24 38//24 24//24 22//24
f 38//25 28//25 4//25 24//25
f 38//26 37//26 36//26 35//26 34//26 33//26 32//26 31//26 30//26 29//26 27//26 28//26
f 25//27 39//27 19//27 21//27
f 39//28 40//28 17//28 19//28
f 40//29 41//29 15//29 17//29
f 41//30 42//30 13//30 15//30
f 42//31 43//31 11//31 13//31
f 43//32 44//32 9//32 11//32
f 44//33 45//33 7//33 9//33
f 45//34 46//34 5//34 7//34
f 46//35 47//35 2//35 5//35
f 47//36 48//36 1//36 2//36
f 48//37 26//37 23//37 1//37
usemtl mat21
f 50//38 49//38 25//38 26//38
f 49//39 51//39 39//39 25//39
f 51//40 52//40 40//40 39//40
f 52//41 53//41 41//41 40//41
f 53//42 54//42 42//42 41//42
f 54//43 55//43 43//43 42//43
f 55//44 56//44 44//44 43//44
f 56//45 57//45 45//45 44//45
f 57//46 58//46 46//46 45//46
f 58//47 59//47 47//47 46//47
f 59//48 60//48 48//48 47//48
f 60//49 50//49 26//49 48//49
f 75//63 74//63 73//63
f 74//64 77//64 76//64
f 77//65 79//65 78//65
f 79//66 81//66 80//66
f 81//67 83//67 82//67
f 83//68 85//68 84//68
f 85//69 86//69 84//69
f 86//70 88//70 87//70
f 88//71 90//71 89//71
f 90//72 92//72 91//72
f 92//73 94//73 93//73
f 94//74 75//74 95//74
f 97//75 96//75 93//75
f 94//76 92//76 90//76 88//76 86//76 85//76 83//76 81//76 79//76 77//76
f 96//77 98//77 91//77
f 98//78 99//78 89//78
f 100//79 87//79 89//79
f 101//80 84//80 87//80
f 101//81 82//81 84//81
f 103//82 102//82 82//82
f 102//83 104//83 80//83
f 104//84 105//84 78//84
f 105//85 106//85 76//85
f 107//86 73//86 76//86
f 97//87 95//87 73//87
f 96//88 97//88 107//88
f 81//89 108//89 80//89
f 82//90 108//90 81//90
f 102//91 108//91 82//91
f 80//92 108//92 102//92
f 101//93 103//93 82//93
f 84//94 82//94 83//94
f 98//95 96//95 107//95
f 99//96 98//96 107//96
f 100//97 99//97 107//97
f 101//98 100//98 107//98
f 103//99 101//99 107//99
f 102//100 103//100 107//100
f 104//101 102//101 107//101
f 105//102 104//102 107//102
f 106//103 105//103 107//103
f 79//104 80//104 78//104
f 78//105 80//105 104//105
f 77//106 78//106 76//106
f 76//107 78//107 105//107
f 76//108 106//108 107//108
f 74//109 76//109 73//109
f 73//110 107//110 97//110
f 77//111 74//111 75//111
f 77//112 75//112 94//112
f 75//113 73//113 95//113
f 94//114 95//114 93//114
f 93//115 95//115 97//115
f 92//116 93//116 91//116
f 91//117 93//117 96//117
f 90//118 91//118 89//118
f 89//119 91//119 98//119
f 89//120 99//120 100//120
f 88//121 89//121 87//121
f 87//122 100//122 101//122
f 86//123 87//123 84//123
usemtl mat12
f 62//50 61//50 49//50 50//50
f 61//51 63//51 51//51 49//51
f 63//52 64//52 52//52 51//52
f 64//53 65//53 53//53 52//53
f 65//54 66//54 54//54 53//54
f 66//55 67//55 55//55 54//55
f 67//56 68//56 56//56 55//56
f 68//57 69//57 57//57 56//57
f 69//58 70//58 58//58 57//58
f 70//59 71//59 59//59 58//59
f 71//60 72//60 60//60 59//60
f 72//61 62//61 50//61 60//61
f 72//62 71//62 70//62 69//62 68//62 67//62 66//62 65//62 64//62 63//62 61//62 62//62
